<?xml version="1.0" encoding="UTF-8"?>
<svg id="Layer_1" data-name="Layer 1" xmlns="http://www.w3.org/2000/svg" viewBox="0 0 500 500">
  <defs>
    <style>
      .cls-1 {
        fill: #f15a24;
      }
    </style>
  </defs>
  <path class="cls-1" d="M386.56,343.17h54.62v25.6h-57.18c-1.11,0-15.04,10.31-18.48,12.24-34.13,19.22-67.61,39.55-101.81,58.65-11.21,3.01-18.03-2.44-18.82-13.71l.81-267.18,5.39-8.27,106.46-63.38h-192.89v32.43c-11.19-6.03-17.47,5.35-24.77,11.93-5.23.44-.83-1.85-.83-2.55v-49.5c0-6.3,15.56-19.31,23.04-17.93,64.02,4.67,136.83-6.19,199.81-.08,9.43.91,24.67,11.61,24.67,21.42v260.31ZM277.86,294.21c-12.83,14.04,6.37,36.54,21.72,22.58,17.33-15.76-8.44-37.09-21.72-22.58Z"/>
  <path class="cls-1" d="M172.43,186.91c9.15,9.38-.04,7.34-4.24,16.91,1.86,3.73,8.71,7.14,9.77,10.82,1.3,4.49-.92,9.86,1.18,14.19.89,1.83,11.42,8.65,14.52,12.79,28.67,38.23-13.63,89.17-56.87,67.11-33.13-16.9-29.86-64.56,1.97-81.06,2.81-22.83-2.76-51.07.19-73.21,1.07-8.02,14.69-16.26,19.72-22.92l19.6,19.6-10.18,10.24,10.18,10.24-10.18,10.33c-.56,2.68,2.78,3.38,4.33,4.96ZM148.13,296.55c11.89,12.97,33.5-6.22,18.34-19.2-13.24-11.34-29.1,7.46-18.34,19.2Z"/>
  <path class="cls-1" d="M164.65,327.81v40.97H58.82v-25.6h77.67c6.14-2.93-.22-17.7.86-18.77l27.3,3.41Z"/>
</svg>