<?xml version="1.0" encoding="UTF-8"?>
<svg id="Layer_1" data-name="Layer 1" xmlns="http://www.w3.org/2000/svg" viewBox="0 0 500 500">
  <defs>
    <style>
      .cls-1 {
        fill: #f15a24;
        fill-rule: evenodd;
      }
    </style>
  </defs>
  <path class="cls-1" d="M302.35,362.19H127.13c-3.12,0-5.65,2.52-5.65,5.64s2.52,5.64,5.64,5.64h175.22c3.11,0,5.64-2.52,5.64-5.64s-2.53-5.64-5.64-5.64h0ZM285.42,385.78H127.13c-3.12,0-5.65,2.52-5.65,5.64s2.52,5.64,5.64,5.64h158.29c3.11,0,5.64-2.52,5.64-5.64,0-3.12-2.53-5.64-5.64-5.64h0ZM259.41,409.37H127.13c-3.12,0-5.65,2.52-5.65,5.64s2.52,5.64,5.64,5.64h132.28c3.11,0,5.64-2.52,5.64-5.64s-2.53-5.64-5.64-5.64h0ZM351.94,128.77H127.13c-3.12,0-5.65,2.52-5.65,5.64s2.52,5.64,5.64,5.64h224.81c3.11,0,5.64-2.53,5.64-5.64s-2.53-5.64-5.64-5.64h0ZM274.53,106.53H127.13c-3.12,0-5.65,2.52-5.65,5.64s2.52,5.64,5.64,5.64h147.4c3.11,0,5.64-2.53,5.64-5.64,0-3.12-2.53-5.64-5.64-5.64h0ZM234.62,84.28h-107.49c-3.12,0-5.65,2.53-5.65,5.64s2.52,5.64,5.64,5.64h107.49c3.11,0,5.64-2.52,5.64-5.64,0-3.11-2.53-5.64-5.64-5.64h0ZM327.67,59.46v46.17h46.17l-46.17-46.17ZM239.53,343.05c52.65,0,95.7-43.05,95.7-95.71,0-52.66-43.05-95.71-95.71-95.71s-95.71,43.04-95.71,95.71c0,52.65,43.05,95.71,95.71,95.71h0,0ZM99.58,53.82h216.8v57.46c0,3.12,2.52,5.64,5.64,5.64h57.46v124.62c-.6-.04-1.23-.06-1.85-.06-12.34,0-22.2,7.89-28.48,17.96-9.25,14.82-11.6,34.87-8.59,51.93,1.06,6.02,3.31,12.66,5.23,18.48,2.74,8.35,5.68,16.64,8.65,24.91.39,1.08.78,2.15,1.17,3.23h-19.15c-8.59,0-15.59,7-15.59,15.59v14.08h-6c-9.89,0-17.97,8.09-17.97,17.97v26.93c0,.15,0,.31,0,.46h0c0,.16,0,.31.02.45v.02c0,.14.02.28.03.42v.02s0,.02,0,.02c.01.15.02.28.04.43v.02c.02.15.03.28.05.42v.03c.02.14.04.27.06.4v.05c.02.14.05.27.07.41v.04c.03.12.06.24.08.36l.02.1c.03.1.05.21.07.32l.03.13c.02.1.05.2.07.31l.03.12c.02.1.06.2.08.3l.04.14c.02.1.05.19.09.29l.04.13c.02.09.05.18.08.27l.07.19.07.19c.02.08.05.15.08.23l.08.2.08.21.08.19.1.23h0s.06.13.06.13v.02s.11.23.11.23l.06.12.02.02c.05.1.1.2.14.31v.02s.07.12.07.12l.11.23h0s-199.37,0-199.37,0V53.82Z"/>
  <g>
    <path class="cls-1" d="M207.19,248.52c-2.2-2.2-2.2-5.77,0-7.97,2.2-2.21,5.77-2.21,7.98,0l16.78,16.78,31.94-31.94c2.2-2.21,5.77-2.21,7.98,0,2.2,2.2,2.2,5.77,0,7.98l-35.93,35.93c-2.21,2.2-5.78,2.2-7.98,0l-20.77-20.78h0ZM239.53,301.93c30,0,54.58-24.59,54.58-54.58s-24.59-54.58-54.58-54.58-54.58,24.58-54.58,54.58,24.58,54.58,54.58,54.58h0Z"/>
    <path class="cls-1" d="M239.53,311.6c-35.34,0-64.26-28.92-64.26-64.26h0c0-35.34,28.92-64.26,64.26-64.26h0c35.34,0,64.26,28.92,64.26,64.26s-28.92,64.26-64.26,64.26h0ZM239.53,333.37c47.32,0,86.03-38.71,86.03-86.03s-38.71-86.03-86.03-86.03h0c-47.32,0-86.03,38.71-86.03,86.03h0c0,47.32,38.71,86.03,86.03,86.03h0,0Z"/>
    <path class="cls-1" d="M314.87,440.87h125.53c4.56,0,8.29-3.73,8.29-8.3v-26.93c0-4.56-3.73-8.3-8.29-8.3h-125.53c-4.56,0-8.3,3.73-8.3,8.3v26.93c0,4.56,3.73,8.3,8.3,8.3h0Z"/>
    <path class="cls-1" d="M336.47,367.67h82.34c3.26,0,5.92,2.66,5.92,5.92v14.08h-94.17v-14.08c0-3.26,2.67-5.92,5.92-5.92Z"/>
    <path class="cls-1" d="M377.64,251.16c7.35,0,14.69,4.47,20.26,13.4h0c7.59,12.16,10.01,29.59,7.27,45.12-1.81,10.26-13.09,40.81-21.02,62.65h-13.04c-7.93-21.84-19.2-52.4-21.01-62.65-2.74-15.53-.32-32.96,7.27-45.12,5.57-8.93,12.93-13.4,20.27-13.4Z"/>
  </g>
</svg>