<?xml version="1.0" encoding="UTF-8"?>
<svg id="Layer_1" data-name="Layer 1" xmlns="http://www.w3.org/2000/svg" viewBox="0 0 500 500">
  <defs>
    <style>
      .cls-1 {
        fill: #f15a24;
      }
    </style>
  </defs>
  <path class="cls-1" d="M380.67,146.64c-.45.56-2.57,1.65-3.33,1.76l-37.64-12.08c-38.6,86.12-108.61,154.46-196.28,189.79-11.22,4.52-25.27,9.96-36.9,12.85-3.25.81-3.81-1.11-2.17-3.76,92.7-39.22,162.23-118.16,195.01-212.79l-33.71-12.17c-3.62-2.26-3.83-7-.44-9.56l81.24-53.03c3.47.18,4.97,2.07,6.31,4.99,11.9,25.78,16.99,59.85,28.56,86.4.54,2.21.83,5.74-.66,7.58Z"/>
  <path class="cls-1" d="M341.08,188.22c5.69-1.02,28.78-.95,34.7-.11,2.35.33,5.38,1.57,5.88,4.22l.06,191.88c-.04,2.57-2.75,4.59-5.13,4.97-5.48.87-30.16.87-35.64,0-2.06-.32-4.67-2.08-5.07-4.25l-.04-191.08c.18-3.3,2.11-5.06,5.25-5.62Z"/>
  <path class="cls-1" d="M373.54,398.18c3.02.18,6.84,1.86,7.79,4.98.72,2.36.69,11.71.36,14.43-.57,4.76-4.41,7.09-8.96,7.35l-259.46.04c-4.81-.09-9.09-2.3-9.7-7.39-.72-6.04-1.62-18.55,6.6-19.07l263.35-.34Z"/>
  <path class="cls-1" d="M322.4,387.42c-.87.95-2.68,1.67-3.99,1.83-7.17.87-27.77.82-35-.02-2.87-.33-4.79-1.61-5.64-4.46l-.21-131.15c.12-2.63,3.01-4.9,5.43-5.46l35.24-.06c2.98.4,4.96,2.19,5.64,5.12l.38,128.65c-.02,1.72-.7,4.3-1.84,5.54Z"/>
  <path class="cls-1" d="M264.17,296.22c1.15,1.15,1.66,3.93,1.81,5.57,2.33,25.67-1.86,54.82,0,80.86.04,4.5-2.49,6.09-6.64,6.56-7.58.86-24.95.75-32.65.03-4.45-.41-7.38-1.55-7.39-6.6,1.84-26.06-2.31-55.17,0-80.86.47-5.23,2.19-6.91,7.38-7.38,7.75-.7,25.06-.83,32.68.02,1.29.14,3.95.93,4.81,1.79Z"/>
  <path class="cls-1" d="M162.85,387.45c-1.15-1.15-1.66-3.93-1.81-5.57-1.05-11.58-1.05-35.1.01-46.68.39-4.19,1.17-6.83,5.84-7.37,11.46-1.32,25.93.69,37.68.42l3.14,5.41c-1.12,15.79,1.43,33.43.02,48.99-.42,4.65-2.02,6.18-6.6,6.6-7.93.72-25.66.85-33.46-.02-1.29-.14-3.95-.93-4.81-1.79Z"/>
  <path class="cls-1" d="M108.83,358.33c5.89-1.06,26.91-.89,33.22-.19,2.52.28,6.19,1.24,7.03,3.84s.74,18.15.36,21.42c-.42,3.61-2.26,5.41-5.83,5.83-7.18.84-27.03.84-34.21,0-2.37-.28-5.3-1.73-5.79-4.31-.52-2.77-.52-19.7,0-22.49.44-2.38,3.06-3.72,5.21-4.11Z"/>
</svg>