<?xml version="1.0" encoding="UTF-8"?>
<svg id="Layer_1" data-name="Layer 1" xmlns="http://www.w3.org/2000/svg" xmlns:xlink="http://www.w3.org/1999/xlink" viewBox="0 0 5000 5000">
  <defs>
    <style>
      .cls-1 {
        letter-spacing: 0em;
      }

      .cls-2 {
        clip-path: url(#clippath-21);
      }

      .cls-3 {
        clip-path: url(#clippath-6);
      }

      .cls-4 {
        clip-path: url(#clippath-7);
      }

      .cls-5 {
        clip-path: url(#clippath-17);
      }

      .cls-6 {
        clip-path: url(#clippath-15);
      }

      .cls-7 {
        clip-path: url(#clippath-18);
      }

      .cls-8 {
        clip-path: url(#clippath-4);
      }

      .cls-9 {
        fill: #e7f6fd;
      }

      .cls-10 {
        fill: #00b9f2;
      }

      .cls-11, .cls-12 {
        fill: #231f20;
      }

      .cls-13 {
        clip-path: url(#clippath-9);
      }

      .cls-14 {
        clip-path: url(#clippath-10);
      }

      .cls-15 {
        fill: #fff;
      }

      .cls-16 {
        letter-spacing: -.01em;
      }

      .cls-17 {
        fill: #9b9293;
      }

      .cls-18 {
        clip-path: url(#clippath-11);
      }

      .cls-19 {
        letter-spacing: 0em;
      }

      .cls-20 {
        fill: #f9aa8c;
      }

      .cls-21 {
        letter-spacing: .01em;
      }

      .cls-22 {
        clip-path: url(#clippath-1);
      }

      .cls-23 {
        letter-spacing: 0em;
      }

      .cls-24 {
        fill: #393738;
      }

      .cls-25 {
        fill: #8ed8f8;
      }

      .cls-26 {
        clip-path: url(#clippath-5);
      }

      .cls-27 {
        fill: #fbf3f1;
      }

      .cls-28 {
        clip-path: url(#clippath-20);
      }

      .cls-29 {
        fill: #313a6b;
      }

      .cls-30 {
        clip-path: url(#clippath-8);
      }

      .cls-31 {
        fill: #eee7e9;
      }

      .cls-32 {
        clip-path: url(#clippath-3);
      }

      .cls-33 {
        clip-path: url(#clippath-12);
      }

      .cls-34 {
        clip-path: url(#clippath-14);
      }

      .cls-35 {
        letter-spacing: 0em;
      }

      .cls-36 {
        clip-path: url(#clippath-19);
      }

      .cls-37 {
        fill: #c7eafb;
      }

      .cls-38 {
        fill: #d5c4c9;
      }

      .cls-39 {
        fill: #c49784;
      }

      .cls-40 {
        fill: #44c8f5;
      }

      .cls-12 {
        font-family: MyriadPro-Regular, 'Myriad Pro';
        font-size: 12px;
      }

      .cls-41 {
        fill: #111421;
      }

      .cls-42 {
        fill: #2b3464;
      }

      .cls-43 {
        clip-path: url(#clippath-16);
      }

      .cls-44 {
        clip-path: url(#clippath-2);
      }

      .cls-45 {
        fill: #21264d;
      }

      .cls-46 {
        letter-spacing: -.01em;
      }

      .cls-47 {
        clip-path: url(#clippath-13);
      }

      .cls-48 {
        fill: #00aeef;
      }

      .cls-49 {
        clip-path: url(#clippath);
      }

      .cls-50 {
        fill: #f15b27;
      }
    </style>
    <clipPath id="clippath">
      <path class="cls-11" d="M3380.42,3669.56c-5.74-91.78-13.38-297.33-13.38-297.33,0,0-28.68,38.24-90.82,38.24s-136.71-105.16-211.17-222.76c-10.48-16.56-20.82-33.63-30.85-50.73-39.66,5.16-112.16,6.35-144.13,6.62-8.81,62.34-20.81,134.84-36.42,203.77-39.2,173.04-124.29,164.44-172.09,158.7-47.8-5.74-54.81-7.33-54.81-7.33,12.75,73.93,42.38,419.38,42.38,419.38h302.11l21.99-379.55,106.12,379.55h286.81s0-156.79-5.74-248.57Z"/>
    </clipPath>
    <clipPath id="clippath-1">
      <path class="cls-11" d="M2974.03,3027.96c-12.47-23.84-23.22-45.15-31.55-61.98-10.61,4.1-21.97,8.42-33.12,12.52,0,0-4.15,49.24-13.24,120.14l13.24,25.96,64.67-96.65Z"/>
    </clipPath>
    <clipPath id="clippath-2">
      <path class="cls-11" d="M3276.21,3410.47c62.14,0,90.82-38.24,90.82-38.24,56.41-44.93,91.78-102.3,91.78-102.3l-108.51-310.24,14.34-10.99-41.11-67.4s-34.26,32.03-47.01,52.42c-12.75,20.4-9.56,34.74-13.38,34.74s-14.34-25.18-14.34-25.18c-2.87,11.47-15.61,26.77-34.1,33.46-18.48,6.69-36.01-5.74-36.01-5.74,0,0-23.42,20.24-49.71,18.8-26.29-1.43-53.06-2.81-71.94-11.09-18.88-8.27-29.16-13.77-29.16-13.77,0,0-24.62,1.43-30.12-7.17-5.5-8.6-4.54-11.95-4.54-11.95,0,0-22.78,9.33-50.74,20.15,25.14,50.77,72.16,142.13,122.56,221.73,74.46,117.59,149.03,222.76,211.17,222.76Z"/>
    </clipPath>
    <clipPath id="clippath-3">
      <path class="cls-20" d="M2997.76,2957.78c5.5,8.6,30.12,7.17,30.12,7.17,0,0,10.28,5.5,29.16,13.77,18.88,8.27,45.65,9.65,71.94,11.09,26.29,1.43,49.71-18.8,49.71-18.8,0,0,5.1-6.37,13.38-15.62,8.29-9.24,9.56-21.99,9.56-21.99l33.14-41.43s-3.19-36.97-6.37-61.19c-3.19-24.22-42.07-43.98-42.07-43.98l-58,71.38s-3.19,12.43-38.56,27.73c-35.37,15.3-68.76,13.7-69.59,40.47,0,0-26.33,1.91-26.97,19.44,0,0-.96,3.35,4.54,11.95Z"/>
    </clipPath>
    <clipPath id="clippath-4">
      <path class="cls-11" d="M3228.41,2830.79c3.19,24.22,6.37,61.19,6.37,61.19l-33.14,41.43s-1.27,12.75-9.56,21.99c-8.29,9.24-13.38,15.62-13.38,15.62,0,0,17.53,12.43,36.01,5.74,18.48-6.69,31.23-21.99,34.1-33.46,0,0,10.52,25.18,14.34,25.18s.64-14.34,13.38-34.74c12.75-20.4,47.01-52.42,47.01-52.42,0,0,47.32-26.29,61.66-42.54s63.58-56.41,71.7-86.04c8.13-29.64,13.86-82.94,7.89-107.32-5.98-24.38-27.01-50.43-27.01-50.43,0,0-4.78-34.42-28.68-95.6-23.9-61.19-79.03-221.48-95.29-255.26-16.25-33.78-54.17-101.98-74.89-123.01-20.71-21.03-40.47-7.01-40.47-7.01-8.29,21.99-6.37,37.29-6.37,73.62s-2.55,80.31-12.11,137.67c-9.56,57.36-1.91,172.09,15.93,235.19,17.85,63.1,43.34,161.89,43.34,161.89-76.48,40.15-87.32,59.9-87.32,59.9h0c5.49-.11,6.36,2.15,7.02,5.12l17.21-6.37,10.2,5.74s38.88,19.76,42.07,43.98Z"/>
    </clipPath>
    <clipPath id="clippath-5">
      <path class="cls-11" d="M3239.24,2722.44s-25.49-98.79-43.34-161.89c-17.85-63.1-25.49-177.82-15.93-235.19,9.56-57.36,12.11-101.34,12.11-137.67s-1.91-51.63,6.37-73.62c0,0-60.87-12.11-97.2-15.93-29.34-3.09-91.91-9.5-132.03-14.88,0,0,17.31,39.41,45.03,70.96l-39.2,38.24,51.63,37.29s-17.21,179.74-33.46,262.91c-16.25,83.18-100.38,312.63-100.38,312.63,0,0-7.29,22.94,5.92,52.58,0,0,186.88-55.58,221.94-67.47,16.93-5.74,26.09-7.94,31.22-8.06h0s10.83-19.76,87.32-59.91Z"/>
    </clipPath>
    <clipPath id="clippath-6">
      <path class="cls-11" d="M2853.64,3347.37c39.2-173.04,55.72-368.86,55.72-368.86-9.35,3.44-18.55,6.73-27.04,9.62-45.25,15.39-70.27,22-70.27,22,5.5,2.15-12.67,25.1-12.67,25.1,0,0-4.3,13.86-9.08,21.75-4.78,7.89-10.28,19.84-14.1,35.61-3.82,15.77-8.6,27.73-20.79,36.09-12.19,8.37-28.44,11.23-41.83,11.23s-30.35,4.78-36.33,3.59c-5.98-1.19-18.36-5.57-30.83-4.54-12.47,1.03-12.03-.96-12.03-.96,0,0-58.64,263.87-61.19,309.76-2.55,45.89,53.54,50.99,53.54,50.99,0,0,7.01,1.59,54.81,7.33,47.8,5.74,132.89,14.34,172.09-158.7Z"/>
    </clipPath>
    <clipPath id="clippath-7">
      <path class="cls-20" d="M2646.42,3138.95c12.47-1.03,24.86,3.35,30.83,4.54,5.98,1.2,22.94-3.59,36.33-3.59s29.64-2.87,41.83-11.23c12.19-8.37,16.97-20.32,20.79-36.09,3.82-15.77,9.32-27.73,14.1-35.61,4.78-7.89,9.08-21.75,9.08-21.75,0,0,18.16-22.94,12.67-25.1s-22.95,5.98-22.95,5.98c-14.58-9.8-38,12.67-38,12.67-8.37-15.3-34.42-1.91-48.52,6.21-14.1,8.13-15.3,5.02-15.3,5.02l13.86-85.57h-6.21l-11.98-1.71s-26.05,3.5-44.43,13.66c-18.37,10.16-10.52,19.6-15.77,26.77s-21.03,32.96-21.03,32.96l-7.17,15.32s-11.15,24.54-7.97,42.7c3.19,18.16,28.04,25.18,28.04,25.18,5.26,22.47,19.76,28.68,19.76,28.68,0,0-.44,1.98,12.03.96Z"/>
    </clipPath>
    <clipPath id="clippath-8">
      <path class="cls-11" d="M2596.15,2995.23c9.56-23.26,22.81-40.15,35.3-42.7,12.5-2.55,33.37-2.39,33.37-2.39,0,0-32.98-25.34-35.85-33.46-2.87-8.13-23.9-52.63-21.99-68.62,1.91-15.99-3.82-23.64-11.47-51.68-7.65-28.04-18.48-89.87-36.33-137.67-17.85-47.8-80.31-116.64-119.82-180.37-39.52-63.74-75.21-94.97-75.21-94.97,0,0-3.19,111.54,13.38,228.81,16.57,117.27,37.6,251.76,37.6,251.76,0,0,7.81,1.12,5.9,19.76,0,0,38.72-1.91,40.87,15.3,2.15,17.21,6.93,27.25-47.09,27.73v4.78s22.47-3.82,32.51,10.99c10.04,14.82-1.43,45.41-1.43,45.41,0,0,55.45,20.08,87.96,27.73,32.51,7.65,60.71,25.81,60.71,25.81l7.17-15.32s-15.14-7.63-5.58-30.89Z"/>
    </clipPath>
    <clipPath id="clippath-9">
      <path class="cls-11" d="M2439.36,2478.33c39.52,63.74,101.98,132.57,119.82,180.37,17.85,47.8,28.68,109.63,36.33,137.67,7.65,28.04,13.38,35.69,11.47,51.68-1.91,15.99,19.12,60.49,21.99,68.62,2.87,8.13,35.85,33.46,35.85,33.46l30.12,4.3,3.82-42.07,10.76-7.49v-7.11l189.24-39.89c-13.2-29.64-5.92-52.58-5.92-52.58l-2.6-14.99c-2.53-2.25-94.71-84.33-148.59-144.67-54.63-61.19-202.55-296.13-202.55-296.13l32.51-87.25-42.93-29.91c-24.23,18.72-53.77,42.66-79.76,66.88-56.09,52.26-84.77,84.13-84.77,84.13,0,0,35.69,31.23,75.21,94.97Z"/>
    </clipPath>
    <clipPath id="clippath-10">
      <path class="cls-15" d="M2763.14,2301.78c-21.67-24.22-47.8-38.24-47.8-38.24l11.47-18.94,1.04-3.45c-24.28-8.83-48.23-33.33-68.28-54.89-8.38-9.01-16.17-18.57-22.88-27.37l-21.41,36.45s1.91,13.38,13.38,41.43c11.47,28.04,77.75,199.46,129.37,303.36-21.46-116.17,5.11-238.35,5.11-238.35Z"/>
    </clipPath>
    <clipPath id="clippath-11">
      <path class="cls-15" d="M2787.36,2300.51c19.76,17.21,43.34,60.55,59.27,133.24,15.93,72.7,52.13,203.42,52.13,203.42h0c1.03-13.14,2.04-25.77,2.95-37.11,5.36-66.29,4.19-240.28-2.82-349.91-7.01-109.63-15.18-159.27-15.18-159.27-2.29,5.71-4.85,12.08-7.6,18.89-10.99,27.25-29.16,55.93-54.49,91.78-6.25,8.84-12.08,15.86-17.79,21.46l12.22,10.57c-21.03,21.67-28.68,66.92-28.68,66.92Z"/>
    </clipPath>
    <clipPath id="clippath-12">
      <path class="cls-42" d="M2193.02,3338.77c-.53-40.07-10.75-99.3-19.81-144.4-8.85,72.47-25.31,186.74-51.9,301.19-43.98,189.3-108.99,271.52-170.18,292.55-61.19,21.03-349.91-71.7-349.91-71.7l40.15,201.72h522.95c-5.74-129.07,38.24-259.09,38.24-259.09,0,0-8.6-247.61-9.56-320.27Z"/>
    </clipPath>
    <clipPath id="clippath-13">
      <path class="cls-29" d="M1951.14,3788.11c61.19-21.03,126.2-103.25,170.18-292.55,43.98-189.3,60.23-378.11,60.23-378.11-18.64-.96-42.07.48-58.32-11.95-1.13-.87-2.27-1.66-3.4-2.42-6.31,10.61-16.24,23.84-26.88,24.41-17.85.96-44.93,2.87-44.93,2.87,0,0-68.2,25.81-171.45,34-103.25,8.19-285.86,8.06-285.86,8.06,0,0-18.16,88.91-36.33,140.54-18.16,51.63-97.83,292.87-97.83,292.87,21.67,17.85,76.48,38.88,76.48,38.88v42.07c22.31,14.66,68.2,29.64,68.2,29.64,0,0,288.72,92.74,349.91,71.7Z"/>
    </clipPath>
    <clipPath id="clippath-14">
      <path class="cls-29" d="M1876.57,3164.35c103.25-8.19,171.45-34,171.45-34,0,0,4.78-40.79,7.33-77.12s2.07-92.74,2.07-92.74c0,0-47.96-1.27-80.47-1.27s-169.22,7.65-195.03,7.65-49.71-16.25-18.16-45.89c31.55-29.64,30.59-39.2,31.55-113.77.96-74.57,58.32-99.43,37.29-176.87s-36.33-112.81-88.91-180.69-118.87-29.32-118.87-29.32c-26.77,21.67-45.57,58.96-54.18,91.46-8.6,32.51-30.59,51.63-43.02,88.91-12.43,37.29-14.34,140.54-14.34,217.02s-37.29,225.63-21.03,283.94c16.25,58.32,98.47,70.75,98.47,70.75,0,0,182.6.13,285.86-8.06Z"/>
    </clipPath>
    <clipPath id="clippath-15">
      <path class="cls-29" d="M1743.68,2449.65c52.58,67.88,67.88,103.25,88.91,180.69s-36.33,102.3-37.29,176.87c-.96,74.57,0,84.13-31.55,113.77-31.55,29.64-7.65,45.89,18.16,45.89s162.53-7.65,195.03-7.65,80.47,1.27,80.47,1.27l19.6-1.27,9.4,13.38,34.9-18.16s-66.92-191.21-119.51-284.9c-52.58-93.69-118.07-210.81-118.07-210.81l67.4,6.69-57.36-20.08-27.99-169.87c-25.77,18.92-55.38,40.57-77.18,56.26-47.8,34.42-137.03,66.92-163.8,88.59,0,0,66.29-38.56,118.87,29.32Z"/>
    </clipPath>
    <clipPath id="clippath-16">
      <path class="cls-15" d="M2057.42,2960.49s.48,56.41-2.07,92.74-7.33,77.12-7.33,77.12c0,0,27.09-1.91,44.93-2.87,10.64-.57,20.57-13.8,26.88-24.41-15.1-10.12-29.58-10.96-29.58-10.96l-3.82-119.5-9.4-13.38-19.6,1.27Z"/>
    </clipPath>
    <clipPath id="clippath-17">
      <path class="cls-20" d="M2445.89,2987.9s11.47-30.59,1.43-45.41c-10.04-14.82-32.51-10.99-32.51-10.99,0,0-.96,14.98-.96,15.93s-30.91-9.24-73.93-12.43c-43.02-3.19-101.34-1.59-101.34-1.59l2.71-45.41c-11.95-1.43-23.66,11.71-29.64,11.47-5.98-.24-18.64,8.6-18.64,8.6l-47.48,30.43-24.22,15.93-34.9,18.16,3.82,119.5s16.73.96,32.98,13.38,39.68,10.99,58.32,11.95c18.64.96,43.02,3.82,43.02,3.82,26.77,3.82,68.36,23.42,81.26,32.98,12.91,9.56,28.2,16.25,36.81,1.43,8.6-14.82-5.26-15.3-27.25-32.51-21.99-17.21-57.84-39.2-57.84-39.2,0,0,7.65-3.35,25.81,1.91,18.16,5.26,44.93,20.08,65.01,27.25,20.08,7.17,30.12,8.6,35.37-6.21,5.26-14.82-16.25-24.86-16.25-24.86,0,0-20.09-13.23-37.53-19.6-17.44-6.37-33.37-14.02-37.52-16.57-4.14-2.55-5.1-13.7-5.1-13.7,0,0,38.88,1.91,65.33,4.14,26.45,2.23,56.09,7.97,56.09,7.97l-.16,15.3s-.96,26.29,9.56,26.29,25.34-13.38,27.73-25.34c2.39-11.95,0-21.51,6.69-37.29,6.69-15.77-6.69-35.37-6.69-35.37ZM2402.39,3002.88s-2.55,0-25.81-5.42c-23.26-5.42-34.74-5.74-57.36-7.33-22.63-1.59-31.87-8.47-31.87-8.47,0,0,32.19-2.69,60.71-2.05,28.52.64,62.3,2.05,62.3,2.05.64,22.76-7.97,21.21-7.97,21.21Z"/>
    </clipPath>
    <clipPath id="clippath-18">
      <path class="cls-31" d="M2421.03,2883.69c1.91-18.64-5.9-19.76-5.9-19.76-58.48-22.15-111.22-14.66-111.22-14.66,0,0-45.17.96-54.26,2.39-9.08,1.43-8.37,36.33-8.37,36.33l-2.71,45.41s58.32-1.59,101.34,1.59c43.02,3.19,73.93,13.38,73.93,12.43s.96-15.93.96-15.93v-4.78l1.59-43.66,4.62.64Z"/>
    </clipPath>
    <clipPath id="clippath-19">
      <path class="cls-15" d="M2042.92,2522.95c21.67,71.38,51.63,185.47,61.82,231.36,10.2,45.89,40.79,184.2,40.79,184.2l47.48-30.43s0-108.03-1.43-156.31c-1.43-48.28-19.28-199.81-23.74-233.59-4.46-33.78-8.6-54.81-8.6-54.81,0,0,11.15-10.84,18.48-26.45,3.34-7.12,2.57-19.08.75-29.99-5.32-.55-10.15-1.58-14.32-2.83.82,8.01,1.62,17.51,1.62,24.06,0,13.38-24.38,41.11-24.38,41.11l1.43-17.69c-18.64-12.91-72.82-64.05-72.82-64.05-39.83-8.92-58.32-35.37-80.94-61.82-22.63-26.45-51.31-86.04-55.77-104.21l-11.47,12.75s8.92,38.88,46.53,105.16c37.6,66.29,52.9,112.18,74.57,183.56Z"/>
    </clipPath>
    <clipPath id="clippath-20">
      <path class="cls-45" d="M2211.66,2441.52l26.64-10.99s7.3,72.18,12.08,152.01c4.78,79.83-2.39,220.85-2.39,243.79,0,9.73.09,18.75.18,25.94.47-.3.96-.52,1.49-.6,9.08-1.43,54.26-2.39,54.26-2.39,0,0-2.87-15.3-2.87-33.46s12.43-22.94,8.6-63.1c-3.82-40.15-1.91-69.79,4.78-170.18,6.69-100.38,1.27-159.66-9.88-181.97-11.15-22.31-50.03-40.79-50.03-40.79,0,0-4.46,5.42-11.47,10.52,0,0-8.29,28.68-40.47,35.37-.02,0-.05,0-.07.01l16.8,22.69-7.65,13.15Z"/>
    </clipPath>
    <clipPath id="clippath-21">
      <path class="cls-20" d="M2070.01,2387.51c39.84,8.92,74.57,7.01,76.16,8.29,1.59,1.27,24.22,16.57,56.41,9.88s40.47-35.37,40.47-35.37c7.01-5.1,11.47-10.52,11.47-10.52,5.74-3.19,10.84-20.71,10.84-20.71,0,0,6.69-7.97,10.83-17.21,4.14-9.24,5.74-29.48,5.74-29.48,10.99-1.43,10.99-21.51,10.99-21.51,13.38-24.86,17.21-85.57,17.21-85.57,0,0,18.16-26.77,20.55-54.49,2.39-27.73-14.34-26.29-15.3-53.06-.96-26.77-3.51-36.01-3.51-36.01-57.36,47.8-142.13,39.52-180.37,49.71-38.24,10.2-54.81,38.24-61.19,73.93-6.37,35.69-13.38,68.2-13.38,68.2l-24.22-1.91s-7.65-33.14-21.03-54.81c-13.38-21.67-44.61-39.52-63.1-28.04-18.48,11.47-4.46,53.54-4.46,53.54l-10.84,19.12c4.46,18.16,33.14,77.76,55.77,104.21,22.63,26.45,41.11,52.9,80.94,61.82Z"/>
    </clipPath>
  </defs>
  <path class="cls-50" d="M713.99,3239.23s1659.66-505.13,3093.25-2010.52l130.98,101.6,110.73-478.09-514.11,125.03,116.73,112.71s-823.04,1022.33-2937.57,2149.27Z"/>
  <rect class="cls-48" x="829.54" y="3667.75" width="363.35" height="263.33"/>
  <rect class="cls-10" x="1378.6" y="3307.62" width="363.35" height="623.46"/>
  <rect class="cls-40" x="1951.86" y="2861.37" width="363.35" height="1050.31"/>
  <rect class="cls-25" x="2531.35" y="2432.96" width="363.35" height="1478.71"/>
  <rect class="cls-37" x="3131.54" y="2018.7" width="363.35" height="1892.98"/>
  <rect class="cls-9" x="3730.52" y="1581.94" width="363.35" height="2342.92"/>
  <g>
    <g>
      <path class="cls-11" d="M3380.42,3669.56c-5.74-91.78-13.38-297.33-13.38-297.33,0,0-28.68,38.24-90.82,38.24s-136.71-105.16-211.17-222.76c-10.48-16.56-20.82-33.63-30.85-50.73-39.66,5.16-112.16,6.35-144.13,6.62-8.81,62.34-20.81,134.84-36.42,203.77-39.2,173.04-124.29,164.44-172.09,158.7-47.8-5.74-54.81-7.33-54.81-7.33,12.75,73.93,42.38,419.38,42.38,419.38h302.11l21.99-379.55,106.12,379.55h286.81s0-156.79-5.74-248.57Z"/>
      <g class="cls-49">
        <path class="cls-24" d="M2613.99,3512.77s50.99,18.48,111.54,10.84c60.55-7.65,100.07-48.44,119.19-100.7,19.12-52.26,34.42-110.9,38.24-148.5,3.82-37.6,3.82-40.15,3.82-40.15l9.34-97.26-18.9-3.45s-32.51,195.67-56.09,259.41c-23.58,63.74-84.77,105.16-131.3,95.6s-100.07-29.96-100.07-29.96l3.19,46.53,21.03,7.65Z"/>
        <path class="cls-24" d="M2922.48,3122.7s-12.75,184.2,14.34,259.41c0,0-25.28-17.85-27.46-107.08-2.18-89.23-2.82-138.05-2.82-138.05l15.93-14.28Z"/>
        <path class="cls-24" d="M3014.26,3129.07s77.76,136.4,136.4,209.69c58.64,73.3,101.98,88.59,138.94,83.49,36.97-5.1,66.92-17.85,86.04-40.15,19.12-22.31,22.31-25.49,22.31-25.49l-11.79-19.12s-45.57,42.07-87,54.18c-41.43,12.11-112.81-59.91-137.03-92.42-24.22-32.51-127.93-181.01-127.93-181.01l-19.94,10.84Z"/>
      </g>
    </g>
    <path class="cls-27" d="M2974.03,3027.96l-64.67,96.65-13.24-25.96c-1.82,14.18-3.84,29.26-6.06,44.95,31.97-.27,104.47-1.47,144.13-6.62-22.19-37.86-42.84-75.9-60.16-109.02Z"/>
    <g>
      <path class="cls-11" d="M2974.03,3027.96c-12.47-23.84-23.22-45.15-31.55-61.98-10.61,4.1-21.97,8.42-33.12,12.52,0,0-4.15,49.24-13.24,120.14l13.24,25.96,64.67-96.65Z"/>
      <g class="cls-22">
        <polygon class="cls-24" points="2912.44 2963.52 2911.96 2978.51 2901.92 3091.15 2909.36 3110.27 2965.98 3027.96 2935.08 2957.31 2948.29 2950.61 2984.62 3024.71 2909.36 3140.87 2886.15 3097.37 2898.76 2967.82 2912.44 2963.52"/>
      </g>
    </g>
    <g>
      <path class="cls-11" d="M3276.21,3410.47c62.14,0,90.82-38.24,90.82-38.24,56.41-44.93,91.78-102.3,91.78-102.3l-108.51-310.24,14.34-10.99-41.11-67.4s-34.26,32.03-47.01,52.42c-12.75,20.4-9.56,34.74-13.38,34.74s-14.34-25.18-14.34-25.18c-2.87,11.47-15.61,26.77-34.1,33.46-18.48,6.69-36.01-5.74-36.01-5.74,0,0-23.42,20.24-49.71,18.8-26.29-1.43-53.06-2.81-71.94-11.09-18.88-8.27-29.16-13.77-29.16-13.77,0,0-24.62,1.43-30.12-7.17-5.5-8.6-4.54-11.95-4.54-11.95,0,0-22.78,9.33-50.74,20.15,25.14,50.77,72.16,142.13,122.56,221.73,74.46,117.59,149.03,222.76,211.17,222.76Z"/>
      <g class="cls-44">
        <path class="cls-24" d="M3339.31,2881.3s-48.76,32.03-57.84,58.8-10.52,41.57-10.52,41.57c0,0-13.01-7.28-19.6-15.68,0,0-26.36,24.78-50.71,21.92-24.34-2.87-32.95-19.12-32.95-19.12l18.64-20.55,137.67-90.35,15.3,23.42Z"/>
        <path class="cls-24" d="M3364.65,2964l-14.34-4.3s-107.55,58.8-122.37,68.84c-14.82,10.04-28.68-4.78-41.59-24.38-12.91-19.6-22.47-35.85-22.47-35.85l-3.35,6.21s19.12,36.33,32.51,52.1c13.38,15.77,24.86,21.03,48.76,5.26,23.9-15.77,122.85-67.88,122.85-67.88Z"/>
      </g>
    </g>
    <g>
      <path class="cls-20" d="M2997.76,2957.78c5.5,8.6,30.12,7.17,30.12,7.17,0,0,10.28,5.5,29.16,13.77,18.88,8.27,45.65,9.65,71.94,11.09,26.29,1.43,49.71-18.8,49.71-18.8,0,0,5.1-6.37,13.38-15.62,8.29-9.24,9.56-21.99,9.56-21.99l33.14-41.43s-3.19-36.97-6.37-61.19c-3.19-24.22-42.07-43.98-42.07-43.98l-58,71.38s-3.19,12.43-38.56,27.73c-35.37,15.3-68.76,13.7-69.59,40.47,0,0-26.33,1.91-26.97,19.44,0,0-.96,3.35,4.54,11.95Z"/>
      <g class="cls-32">
        <path class="cls-39" d="M3153.84,2816.05s20.79.72,27.73,10.52c6.93,9.8,10.99,2.39,16.49,10.52,5.5,8.13,4.78,20.08,5.98,28.68,1.19,8.6,11.47,18.4,11.95,24.38.48,5.98.48,16.49-10.76,24.62-11.23,8.13-40.39,12.67-55.45,21.99-15.06,9.32-18.16,20.55-38.48,20.55s-52.1,2.63-60.23,2.63-23.18,5.02-23.18,5.02l-1.19,5.74s10.04-5.26,31.31-5.74c21.27-.48,43.98-3.35,53.78-2.39,9.8.96,17.93-4.54,27.49-11.95,9.56-7.41,21.51-14.34,42.78-19.84,21.27-5.5,34.18-11.23,37.76-29.64,3.59-18.4-.48-19.12-5.02-25.57s-5.98-12.19-8.13-27.01c-2.15-14.82-10.76-20.79-16.73-22.23-5.98-1.43-17.21-17.45-31.55-15.77l-4.54,5.5Z"/>
        <path class="cls-39" d="M3066.12,2988.62l21.26-2.16s14.21-6.2,26.59-9.55c12.38-3.35,26.24-8.6,34.85-9.08,8.6-.48,17.45,2.87,9.32,2.87s-17.93,2.39-29.88,6.45c-11.95,4.06-30.36,10.54-30.36,10.54l-31.78.93Z"/>
        <path class="cls-39" d="M3016.89,2921.45l3.31,4.94s3.63,9.88,11.51,9.88,33.22-2.63,47.8-6.69c14.58-4.06,23.76-8.13,34.47-8.13s19.07-4.06,35.09-17.69c16.01-13.62,32.03-26.29,40.63-35.13,8.6-8.84,12.19-8.6,5.02,1.67-7.17,10.28-27.01,26.29-38.24,35.37-11.23,9.08-21.51,16.01-30.12,18.64-8.6,2.63-9.32-.72-25.57,4.78-16.25,5.5-45.01,9.56-58,11.95-12.99,2.39-27.09-.72-25.89-19.6Z"/>
      </g>
    </g>
    <g>
      <path class="cls-11" d="M3228.41,2830.79c3.19,24.22,6.37,61.19,6.37,61.19l-33.14,41.43s-1.27,12.75-9.56,21.99c-8.29,9.24-13.38,15.62-13.38,15.62,0,0,17.53,12.43,36.01,5.74,18.48-6.69,31.23-21.99,34.1-33.46,0,0,10.52,25.18,14.34,25.18s.64-14.34,13.38-34.74c12.75-20.4,47.01-52.42,47.01-52.42,0,0,47.32-26.29,61.66-42.54s63.58-56.41,71.7-86.04c8.13-29.64,13.86-82.94,7.89-107.32-5.98-24.38-27.01-50.43-27.01-50.43,0,0-4.78-34.42-28.68-95.6-23.9-61.19-79.03-221.48-95.29-255.26-16.25-33.78-54.17-101.98-74.89-123.01-20.71-21.03-40.47-7.01-40.47-7.01-8.29,21.99-6.37,37.29-6.37,73.62s-2.55,80.31-12.11,137.67c-9.56,57.36-1.91,172.09,15.93,235.19,17.85,63.1,43.34,161.89,43.34,161.89-76.48,40.15-87.32,59.9-87.32,59.9h0c5.49-.11,6.36,2.15,7.02,5.12l17.21-6.37,10.2,5.74s38.88,19.76,42.07,43.98Z"/>
      <g class="cls-8">
        <path class="cls-24" d="M3270.48,2915.48s-.96-4.78,5.02-11.47c5.98-6.69,12.91-4.78,12.91-4.78,0,0,.48-8.84,6.21-9.8,5.74-.96,8.37,1.67,8.37,1.67,0,0-.72-6.93,4.78-8.84,5.5-1.91,8.36,6.19,8.36,6.19l1.44,9.11-36.33,38.48s-10.52-10.28-10.76-20.55Z"/>
        <path class="cls-24" d="M3214.39,2728.18l24.86-5.74s9.56-19.12,20.4-47.16c10.84-28.04,81.58-77.76,147.87-73.3,0,0-10.2-15.93-77.12,7.65-66.92,23.58-81.58,63.74-81.58,63.74l-13.82,32.65-20.59,22.16Z"/>
        <polygon class="cls-24" points="3247.05 2964.48 3248.8 2943.28 3234.78 2891.98 3222.67 2890.86 3247.05 2964.48"/>
      </g>
    </g>
    <g>
      <path class="cls-11" d="M3239.24,2722.44s-25.49-98.79-43.34-161.89c-17.85-63.1-25.49-177.82-15.93-235.19,9.56-57.36,12.11-101.34,12.11-137.67s-1.91-51.63,6.37-73.62c0,0-60.87-12.11-97.2-15.93-29.34-3.09-91.91-9.5-132.03-14.88,0,0,17.31,39.41,45.03,70.96l-39.2,38.24,51.63,37.29s-17.21,179.74-33.46,262.91c-16.25,83.18-100.38,312.63-100.38,312.63,0,0-7.29,22.94,5.92,52.58,0,0,186.88-55.58,221.94-67.47,16.93-5.74,26.09-7.94,31.22-8.06h0s10.83-19.76,87.32-59.91Z"/>
      <g class="cls-26">
        <path class="cls-24" d="M2975.06,2062.45l51.63,90.82-28.68,38.24,44.93,29.96s-12.43,136.81-33.46,236.99c-21.03,100.18-30.16,115.01-54.28,198.42s-62.36,148.42-62.36,148.42l8.87-59.27s51.36-152.97,72.39-235.19c21.03-82.22,33.46-272.47,33.46-272.47l-60.23-36.33,46.85-50.67-52.58-98.78,33.46,9.87Z"/>
        <path class="cls-24" d="M2905.75,2813.9s8.6-4.54,16.73,3.35c8.13,7.89,8.84,21.03.72,26.29-8.13,5.26-22.1,3.35-24.44-4.54-2.33-7.89-2.57-20.32,6.99-25.1Z"/>
        <path class="cls-24" d="M3186.34,2090.89s-3.82,63.35-6.69,127.4c-2.87,64.05-18.16,127.15-14.34,221.8,3.82,94.65,59.27,272.31,59.27,272.31,0,0-83.18,56.57-92.74,85.25-9.56,28.68,126.2-65.97,126.2-65.97l4.78-23.9s-50.67-156.79-61.19-223.71c-10.52-66.92-19.12-111.86,0-191.21,19.12-79.35,22.94-201.97,22.94-201.97h-38.24Z"/>
        <path class="cls-27" d="M3026.69,2401.37l3.35-34.9s52.1-78.4,60.23-92.26c8.13-13.86,32.03-24.86,54.49-7.17l2.87,86.04-120.94,48.28Z"/>
      </g>
    </g>
    <g>
      <path class="cls-11" d="M2853.64,3347.37c39.2-173.04,55.72-368.86,55.72-368.86-9.35,3.44-18.55,6.73-27.04,9.62-45.25,15.39-70.27,22-70.27,22,5.5,2.15-12.67,25.1-12.67,25.1,0,0-4.3,13.86-9.08,21.75-4.78,7.89-10.28,19.84-14.1,35.61-3.82,15.77-8.6,27.73-20.79,36.09-12.19,8.37-28.44,11.23-41.83,11.23s-30.35,4.78-36.33,3.59c-5.98-1.19-18.36-5.57-30.83-4.54-12.47,1.03-12.03-.96-12.03-.96,0,0-58.64,263.87-61.19,309.76-2.55,45.89,53.54,50.99,53.54,50.99,0,0,7.01,1.59,54.81,7.33,47.8,5.74,132.89,14.34,172.09-158.7Z"/>
      <g class="cls-3">
        <path class="cls-24" d="M2874.36,3026.12s-18.16-2.53-21.35,18.51c-3.19,21.03,8.92,29.32,16.57,29.32s15.3-4.95,19.12-25.74c3.82-20.79-14.34-22.09-14.34-22.09Z"/>
      </g>
    </g>
    <path class="cls-27" d="M2993.22,2945.83c.64-17.53,26.97-19.44,26.97-19.44.83-26.77,34.22-25.18,69.59-40.47,35.37-15.3,38.56-27.73,38.56-27.73l58-71.38-10.2-5.74-17.21,6.37c-1.27-5.74-3.19-8.92-38.24,2.96-35.05,11.89-221.94,67.47-221.94,67.47l-189.24,39.89v7.11l-10.76,7.49-3.82,42.07h6.21l-13.86,85.57s1.2,3.11,15.3-5.02c14.1-8.13,40.15-21.51,48.52-6.21,0,0,23.42-22.47,38-12.67,0,0,17.45-8.13,22.95-5.98,0,0,25.02-6.61,70.27-22,45.25-15.39,110.9-42.29,110.9-42.29Z"/>
    <g>
      <path class="cls-20" d="M2646.42,3138.95c12.47-1.03,24.86,3.35,30.83,4.54,5.98,1.2,22.94-3.59,36.33-3.59s29.64-2.87,41.83-11.23c12.19-8.37,16.97-20.32,20.79-36.09,3.82-15.77,9.32-27.73,14.1-35.61,4.78-7.89,9.08-21.75,9.08-21.75,0,0,18.16-22.94,12.67-25.1s-22.95,5.98-22.95,5.98c-14.58-9.8-38,12.67-38,12.67-8.37-15.3-34.42-1.91-48.52,6.21-14.1,8.13-15.3,5.02-15.3,5.02l13.86-85.57h-6.21l-11.98-1.71s-26.05,3.5-44.43,13.66c-18.37,10.16-10.52,19.6-15.77,26.77s-21.03,32.96-21.03,32.96l-7.17,15.32s-11.15,24.54-7.97,42.7c3.19,18.16,28.04,25.18,28.04,25.18,5.26,22.47,19.76,28.68,19.76,28.68,0,0-.44,1.98,12.03.96Z"/>
      <g class="cls-4">
        <path class="cls-39" d="M2695.66,3032.59l-8.6,8.84s-12.91,2.87-24.86,5.5c-11.95,2.63-8.13-5.26,4.3-8.13,12.43-2.87,16.49-7.17,8.84-10.99-7.65-3.82-21.99-7.89-21.99-7.89l13.15.96s-10.99-11.71-13.62-16.73c-2.63-5.02,12.67,10.76,20.08,15.3s18.64,10.04,18.64,10.04l4.06,3.11Z"/>
        <path class="cls-39" d="M2749.19,3013.95l1.91,14.82s4.06,13.15-5.74,21.75c-9.8,8.6-25.81,20.55-43.5,26.77-17.69,6.21-26.29,13.62-37.05,16.73-10.76,3.11-27.96,5.5-34.42,6.69-6.45,1.2-15.77,8.6-15.77,8.6l-4.3,3.35,4.54,3.11s13.15-10.52,24.86-10.52,21.51-.96,36.57-10.04c15.06-9.08,25.81-12.43,33.22-15.3,7.41-2.87,23.66-12.43,31.79-19.6,8.13-7.17,15.06-12.19,15.06-21.27s-2.39-19.6-2.39-19.6l-4.78-5.5Z"/>
        <path class="cls-39" d="M2785.52,3005.83l3.59,10.28s7.65,9.8,4.78,18.88c-2.87,9.08-8.37,18.16-19.36,26.29-10.99,8.13-20.08,13.62-32.98,24.62-12.91,10.99-28.44,26.77-35.61,26.05-7.17-.72-31.07,20.79-39.68,22.71-8.6,1.91-18.64,4.23-18.64,4.23l7.65,3.18s13.86-1.91,22.23-7.89c8.37-5.98,22.94-16.97,29.16-16.97s21.27-13.38,27.49-18.4,12.91-11.23,23.42-19.6c10.52-8.37,18.9-14.1,28.44-23.66,9.54-9.57,14.34-22.71,13.15-27.25-1.19-4.54-8.37-17.93-8.37-17.93l-5.26-4.54Z"/>
        <path class="cls-39" d="M2791.5,3066.29l-8.14,4.43s-10.98,5.13-17.19,15.88c-6.21,10.76-17.69,26.77-25.81,29.64-8.13,2.87-32.26,20.73-34.65,24.11-2.39,3.38,5.5,3.33,5.5,3.33,0,0,7.65-9.27,22.71-18.6,15.06-9.32,19.6-13.86,27.96-23.9,8.37-10.04,9.72-17.24,18.84-23.68,9.12-6.44,10.79-11.22,10.79-11.22Z"/>
      </g>
    </g>
    <path class="cls-15" d="M2638.53,2966.39c18.37-10.16,44.43-13.66,44.43-13.66l-18.13-2.59s-20.87-.16-33.37,2.39c-12.5,2.55-25.74,19.44-35.3,42.7-9.56,23.26,5.58,30.89,5.58,30.89,0,0,15.77-25.79,21.03-32.96s-2.6-16.61,15.77-26.77Z"/>
    <g>
      <path class="cls-11" d="M2596.15,2995.23c9.56-23.26,22.81-40.15,35.3-42.7,12.5-2.55,33.37-2.39,33.37-2.39,0,0-32.98-25.34-35.85-33.46-2.87-8.13-23.9-52.63-21.99-68.62,1.91-15.99-3.82-23.64-11.47-51.68-7.65-28.04-18.48-89.87-36.33-137.67-17.85-47.8-80.31-116.64-119.82-180.37-39.52-63.74-75.21-94.97-75.21-94.97,0,0-3.19,111.54,13.38,228.81,16.57,117.27,37.6,251.76,37.6,251.76,0,0,7.81,1.12,5.9,19.76,0,0,38.72-1.91,40.87,15.3,2.15,17.21,6.93,27.25-47.09,27.73v4.78s22.47-3.82,32.51,10.99c10.04,14.82-1.43,45.41-1.43,45.41,0,0,55.45,20.08,87.96,27.73,32.51,7.65,60.71,25.81,60.71,25.81l7.17-15.32s-15.14-7.63-5.58-30.89Z"/>
      <g class="cls-30">
        <path class="cls-24" d="M2646.18,2908.55l-19.45,2.55s-27.39-31.23-67.07-34.1c-39.68-2.87-81.74,10.89-81.74,10.89,0,0,18.82-22.88,69.79-19.01,50.97,3.87,69.79,13.86,98.47,39.68Z"/>
        <path class="cls-24" d="M2627.06,2852.27s-42.07-13.51-76.96-7.77c-34.9,5.74-61.19,18.16-61.19,18.16,0,0,14.82-11.95,45.89-21.03,31.07-9.08,45.89-14.82,55.93-26.77,10.04-11.95,24.86-19.6,24.86-19.6l-8.13,19.12s-17.69,16.73-30.12,20.55c0,0,27.25-.48,49.24,9.08l.48,8.25Z"/>
        <path class="cls-24" d="M2603.16,2744.11s-35.85,15.3-60.23,36.33-38.24,32.98-58.8,43.98c-20.55,10.99-45.19,38.24-45.19,38.24,0,0,.26-23.42,38.5-46.37,38.24-22.94,63.58-49.24,76.48-56.88,12.91-7.65,37.7-21.98,37.7-21.98l11.54,6.68Z"/>
      </g>
    </g>
    <g>
      <path class="cls-11" d="M2439.36,2478.33c39.52,63.74,101.98,132.57,119.82,180.37,17.85,47.8,28.68,109.63,36.33,137.67,7.65,28.04,13.38,35.69,11.47,51.68-1.91,15.99,19.12,60.49,21.99,68.62,2.87,8.13,35.85,33.46,35.85,33.46l30.12,4.3,3.82-42.07,10.76-7.49v-7.11l189.24-39.89c-13.2-29.64-5.92-52.58-5.92-52.58l-2.6-14.99c-2.53-2.25-94.71-84.33-148.59-144.67-54.63-61.19-202.55-296.13-202.55-296.13l32.51-87.25-42.93-29.91c-24.23,18.72-53.77,42.66-79.76,66.88-56.09,52.26-84.77,84.13-84.77,84.13,0,0,35.69,31.23,75.21,94.97Z"/>
      <g class="cls-13">
        <path class="cls-24" d="M2500.54,2232.35l57.36,37.56-34.42,84.13s84.77,135.12,114.09,176.55c29.32,41.43,87.32,137.03,121.74,175.91,34.42,38.88,120.46,105.16,120.46,105.16,0,0-1.27,42.07,15.3,58l20.51-2.55s-17.96-54.18-7.76-82.22c0,0-115.36-93.69-170.81-166.99-55.45-73.3-178.46-277.25-178.46-277.25l37.6-90.51-64.37-45.89-31.23,28.09Z"/>
        <path class="cls-24" d="M2364.15,2359.78s66.92,75.85,101.34,133.85c34.42,58,77.76,112.18,100.7,150.42,22.94,38.24,22.31,105.8,40.15,156.15,17.85,50.35,10.2,72.02,21.67,93.69,11.47,21.67,36.97,52.26,77.12,48.44,40.15-3.82,10.2,27.41,10.2,27.41,0,0-43.34,2.04-70.75-22.24s-47.16-65.71-56.73-116.06c-9.56-50.35-20.4-146.31-49.08-194.26-28.68-47.94-94.97-139.08-129.38-183.7-34.42-44.62-65.65-70.75-65.65-70.75l20.4-22.95Z"/>
      </g>
    </g>
    <path class="cls-11" d="M2539.1,2349.51s147.92,234.94,202.55,296.13c54.62,61.19,148.7,144.77,148.71,144.78l-2.3-13.8s-78.4-132.57-130.02-236.46c-51.63-103.89-117.91-275.34-129.38-303.38-11.47-28.04-13.38-41.43-13.38-41.43l21.41-36.45c-13.6-17.8-22.69-32.39-22.69-32.39-20.4,15.93-36.33,69.47-36.33,69.47,0,0-20.93,14.69-48.98,36.37l42.93,29.91-32.51,87.25Z"/>
    <path class="cls-11" d="M2993.22,2492.67c16.25-83.18,33.46-262.91,33.46-262.91l-51.63-37.29,39.2-38.24c-27.73-31.55-45.03-70.96-45.03-70.96-9.56-1.28-17.87-2.5-24.12-3.61-32.51-5.74-50.03-17.21-50.03-17.21,0,0-4.48,11.29-11.36,28.43,0,0,8.17,49.64,15.18,159.27,7.01,109.63,8.18,283.63,2.82,349.91-5.37,66.29-13.65,176.55-13.65,176.55l4.78,28.68s84.13-229.45,100.38-312.63Z"/>
    <g>
      <path class="cls-15" d="M2763.14,2301.78c-21.67-24.22-47.8-38.24-47.8-38.24l11.47-18.94,1.04-3.45c-24.28-8.83-48.23-33.33-68.28-54.89-8.38-9.01-16.17-18.57-22.88-27.37l-21.41,36.45s1.91,13.38,13.38,41.43c11.47,28.04,77.75,199.46,129.37,303.36-21.46-116.17,5.11-238.35,5.11-238.35Z"/>
      <g class="cls-14">
        <path class="cls-17" d="M2730.63,2257.17l-15.3,6.37s-7.97,12.11-8.6,26.77c-.64,14.66-13.07,5.42-34.42-19.76-21.35-25.18-57.04-75.21-57.04-75.21l-6.37-1.27v8.92s44.3,60.55,63.74,81.26c19.44,20.71,33.46,28.04,38.56,17.85,5.1-10.2,3.19-19.76,5.74-26.77,2.55-7.01,13.7-18.16,13.7-18.16Z"/>
      </g>
    </g>
    <g>
      <path class="cls-15" d="M2787.36,2300.51c19.76,17.21,43.34,60.55,59.27,133.24,15.93,72.7,52.13,203.42,52.13,203.42h0c1.03-13.14,2.04-25.77,2.95-37.11,5.36-66.29,4.19-240.28-2.82-349.91-7.01-109.63-15.18-159.27-15.18-159.27-2.29,5.71-4.85,12.08-7.6,18.89-10.99,27.25-29.16,55.93-54.49,91.78-6.25,8.84-12.08,15.86-17.79,21.46l12.22,10.57c-21.03,21.67-28.68,66.92-28.68,66.92Z"/>
      <g class="cls-18">
        <path class="cls-17" d="M2802.49,2235.5l13.54-1.91s30.91-.48,46.21,5.74c15.3,6.21,21.99,18.64,21.99,18.64,0,0-12.43-4.78-32.51-7.65-20.08-2.87-46.98-1.02-46.98-1.02l-2.26-13.8Z"/>
      </g>
    </g>
    <path class="cls-11" d="M2715.33,2263.54s26.13,14.02,47.8,38.24c0,0-26.57,122.18-5.11,238.35,0,0,0,.02.01.03,51.63,103.89,130.02,236.46,130.02,236.46,0,0,5.69-75.76,10.7-139.44h0s-36.19-130.73-52.13-203.42c-15.93-72.7-39.52-116.04-59.27-133.24,0,0,7.65-45.25,28.68-66.92l-12.22-10.57c-17.46,17.12-33.73,20.84-56.78,21.56-6.38.2-12.8-1.1-19.2-3.43l-1.04,3.45-11.47,18.94Z"/>
    <path class="cls-20" d="M2747.04,2244.58c30.59-.96,49.24-7.17,74.57-43.02,25.34-35.85,43.5-64.53,54.49-91.78,10.99-27.25,18.96-47.32,18.96-47.32l5.74-48.12s5.1-50.35-8.92-53.54c-14.02-3.19-26.77-10.2-15.3-28.68,11.47-18.48,7.01-48.44-4.46-65.01-11.47-16.57-18.48-1.27-56.72,42.07-38.24,43.34-75.85,47.8-112.81,41.43-36.97-6.37-88.59-80.94-92.42-65.65-3.82,15.3,3.19,26.77,3.19,45.89s-26.77,43.34-26.77,43.34c3.82,23.58-4.99,71.06-4.99,71.09,10.81,36.22,32.4,81.24,32.4,81.24,0,0,20.24,32.51,45.57,59.75,25.34,27.25,56.88,59.27,87.48,58.32Z"/>
    <path class="cls-20" d="M2907.95,2008.52c32.9-29,43.23-72.2,39.06-85.02-4.46-13.7-23.26-6.69-23.26-6.69,0,0-6.37,13.38-12.11,36.97-3.6,14.79-3.94,38.85-3.69,54.74Z"/>
    <path class="cls-20" d="M2574.48,1976.73c-6.37-17.85-13.07-40.79-13.07-40.79-30.27-20.4-37.29,2.55-29,31.23s44.62,59.91,44.62,59.91c0,0,3.82-32.51-2.55-50.35Z"/>
    <path class="cls-11" d="M2586.59,1974.18s26.77-24.22,26.77-43.34-7.01-30.59-3.19-45.89c3.82-15.3,55.45,59.27,92.42,65.65,36.97,6.37,74.57,1.91,112.81-41.43,38.24-43.34,45.25-58.64,56.72-42.07,11.47,16.57,15.93,46.53,4.46,65.01-11.47,18.48,1.27,25.49,15.3,28.68,14.02,3.19,8.92,53.54,8.92,53.54,2.5-1.86,4.87-3.8,7.15-5.81-.25-15.89.09-39.95,3.69-54.74,5.74-23.58,12.11-36.97,12.11-36.97,0,0,10.2-56.41,4.78-88.59-5.42-32.19-23.26-61.19-33.78-72.98-10.52-11.79-70.43-79.67-116.32-78.4-45.89,1.27-101.66,2.87-154.56,21.67-52.9,18.8-73.62,99.43-74.25,151.05-.64,51.63,11.79,86.36,11.79,86.36,0,0,6.69,22.94,13.07,40.79,6.37,17.85,2.55,50.35,2.55,50.35,1.06,5.58,2.65,11.75,4.57,18.19,0-.03,8.82-47.51,4.99-71.09Z"/>
    <g>
      <path class="cls-42" d="M2193.02,3338.77c-.53-40.07-10.75-99.3-19.81-144.4-8.85,72.47-25.31,186.74-51.9,301.19-43.98,189.3-108.99,271.52-170.18,292.55-61.19,21.03-349.91-71.7-349.91-71.7l40.15,201.72h522.95c-5.74-129.07,38.24-259.09,38.24-259.09,0,0-8.6-247.61-9.56-320.27Z"/>
      <g class="cls-33">
        <path class="cls-41" d="M1571.59,3721.18s160.61,57.36,273.43,76.48c112.81,19.12,120.46,29.64,107.08,48.76-13.38,19.12-9.56,88.91-9.56,88.91h21.99s-19.12-54.49,32.51-121.42c51.63-66.92,99.43-130.06,132.89-257.67,33.46-127.61,37.29-156.29,37.29-156.29,0,0,11.47,217.98,14.34,259.09,2.87,41.11,21.03,61.19,21.03,61.19l11.69-47.8s-8.82-251.44-11.69-348c-2.87-96.56-29.37-171.13-29.37-171.13,0,0-27.04,128.11-39.47,208.42-12.43,80.31-46.85,221.8-88.91,297.33-42.07,75.53-81.06,116.25-152.97,116.64-71.91.39-316.45-87-316.45-87l-3.82,32.51Z"/>
      </g>
    </g>
    <path class="cls-45" d="M2202.58,3659.04c59.27-9.56,55.45-55.45,49.71-230.41-5.74-174.96-27.73-307.37-27.73-307.37,0,0-24.38-2.87-43.02-3.82,0,0-2.54,29.53-8.33,76.92,9.06,45.1,19.28,104.33,19.81,144.4.96,72.66,9.56,320.27,9.56,320.27Z"/>
    <g>
      <path class="cls-29" d="M1951.14,3788.11c61.19-21.03,126.2-103.25,170.18-292.55,43.98-189.3,60.23-378.11,60.23-378.11-18.64-.96-42.07.48-58.32-11.95-1.13-.87-2.27-1.66-3.4-2.42-6.31,10.61-16.24,23.84-26.88,24.41-17.85.96-44.93,2.87-44.93,2.87,0,0-68.2,25.81-171.45,34-103.25,8.19-285.86,8.06-285.86,8.06,0,0-18.16,88.91-36.33,140.54-18.16,51.63-97.83,292.87-97.83,292.87,21.67,17.85,76.48,38.88,76.48,38.88v42.07c22.31,14.66,68.2,29.64,68.2,29.64,0,0,288.72,92.74,349.91,71.7Z"/>
      <g class="cls-47">
        <path class="cls-45" d="M1548.65,3182.93s69.79,22.94,308.8,5.74c239.01-17.21,274.38-50.67,274.38-50.67l61.19.96,12.61-56.86-90.05-20.58s-52.58,43.02-178.78,64.05c-126.2,21.03-375.72,12.43-375.72,12.43l-12.43,44.93Z"/>
      </g>
    </g>
    <g>
      <path class="cls-29" d="M1876.57,3164.35c103.25-8.19,171.45-34,171.45-34,0,0,4.78-40.79,7.33-77.12s2.07-92.74,2.07-92.74c0,0-47.96-1.27-80.47-1.27s-169.22,7.65-195.03,7.65-49.71-16.25-18.16-45.89c31.55-29.64,30.59-39.2,31.55-113.77.96-74.57,58.32-99.43,37.29-176.87s-36.33-112.81-88.91-180.69-118.87-29.32-118.87-29.32c-26.77,21.67-45.57,58.96-54.18,91.46-8.6,32.51-30.59,51.63-43.02,88.91-12.43,37.29-14.34,140.54-14.34,217.02s-37.29,225.63-21.03,283.94c16.25,58.32,98.47,70.75,98.47,70.75,0,0,182.6.13,285.86-8.06Z"/>
      <g class="cls-34">
        <path class="cls-45" d="M1798.17,2946.31l-40.84,14.38s-71.97,6.18-119.77,29.12c-47.8,22.94-89.87,41.11-65.49,21.99,24.38-19.12,104.21-61.19,184.04-61.19l42.07-4.3Z"/>
        <path class="cls-45" d="M1801.04,2903.29s-22.94-14.08-51.63-15.41c-28.68-1.32-64.05-.37-104.69,17.8-40.63,18.16-62.14,36.33-62.14,36.33,0,0,5.26-21.03,54.49-43.5,49.24-22.47,98.95-35.37,112.81-29.64,13.86,5.74,33.94,18.16,51.15,34.42Z"/>
        <path class="cls-45" d="M1827.81,2765.14s-48.76-21.03-104.21-73.62c-55.45-52.58-57.36-69.79-57.36-69.79,0,0,1.91,77.44,152.97,157.75l8.6-14.34Z"/>
        <path class="cls-45" d="M1858.4,2682.92s-55.83-83.18-109.18-120.46c-53.35-37.29-128.87-45.89-128.87-45.89,0,0,54.66-35.42,138.63,32.51,83.97,67.92,106.81,115.68,106.81,115.68l-7.39,18.16Z"/>
      </g>
    </g>
    <g>
      <path class="cls-29" d="M1743.68,2449.65c52.58,67.88,67.88,103.25,88.91,180.69s-36.33,102.3-37.29,176.87c-.96,74.57,0,84.13-31.55,113.77-31.55,29.64-7.65,45.89,18.16,45.89s162.53-7.65,195.03-7.65,80.47,1.27,80.47,1.27l19.6-1.27,9.4,13.38,34.9-18.16s-66.92-191.21-119.51-284.9c-52.58-93.69-118.07-210.81-118.07-210.81l67.4,6.69-57.36-20.08-27.99-169.87c-25.77,18.92-55.38,40.57-77.18,56.26-47.8,34.42-137.03,66.92-163.8,88.59,0,0,66.29-38.56,118.87,29.32Z"/>
      <g class="cls-6">
        <path class="cls-45" d="M1842.79,2264.81l30.27,183.56-25.18,10.2s133.21,188.02,181.65,309.12c48.44,121.1,86.04,211.82,86.04,211.82l26.77-16.79s-18.48-45.25-63.1-174c-44.62-128.75-140.22-296.37-140.22-296.37l31.23-15.93-9.56-37.6-52.9-31.46-24.22-173.14-40.79,30.59Z"/>
        <path class="cls-45" d="M1600.59,2419.06c3.82-.64,42.7-25.47,100.7-13.37s82.22,75.2,104.53,120.45c22.31,45.25,47.16,101.34,42.7,139.58-4.46,38.24-21.03,66.92-33.14,94.97-12.11,28.04-7.65,72.66-10.84,108.35-3.19,35.69-29.96,52.9-37.6,65.01-7.65,12.11,7.01,22.31,44.62,20.4,37.6-1.91,32.51-4.97,114.72-6.95,82.22-1.97,125.56-4.4,145.32,0s35.05,25.11,35.05,25.11l-25.49,15.62s-10.84-15.3-65.65-15.62-196.94,16.53-237.1,9.06c-40.15-7.47-66.29-17.03-50.35-43.16,15.93-26.13,50.99-47.8,51.63-77.12.64-29.32.64-84.13,17.21-119.82,16.57-35.69,42.07-83.49,10.84-144.04-31.23-60.55-64.37-142.77-99.43-163.16-35.05-20.4-100.7,2.55-126.83,16.57l19.12-31.87Z"/>
      </g>
    </g>
    <g>
      <path class="cls-15" d="M2057.42,2960.49s.48,56.41-2.07,92.74-7.33,77.12-7.33,77.12c0,0,27.09-1.91,44.93-2.87,10.64-.57,20.57-13.8,26.88-24.41-15.1-10.12-29.58-10.96-29.58-10.96l-3.82-119.5-9.4-13.38-19.6,1.27Z"/>
      <g class="cls-43">
        <path class="cls-11" d="M2107.61,3072.35l-17.37,19.76s-4.94,24.86,13.54,38.24c18.48,13.38,27.73-35.05,27.73-35.05l-23.9-22.94Z"/>
      </g>
    </g>
    <path class="cls-20" d="M2461.91,2898.99c-2.15-17.21-40.87-15.3-40.87-15.3l-4.62-.64-1.59,43.66c54.02-.48,49.24-10.52,47.09-27.73Z"/>
    <g>
      <path class="cls-20" d="M2445.89,2987.9s11.47-30.59,1.43-45.41c-10.04-14.82-32.51-10.99-32.51-10.99,0,0-.96,14.98-.96,15.93s-30.91-9.24-73.93-12.43c-43.02-3.19-101.34-1.59-101.34-1.59l2.71-45.41c-11.95-1.43-23.66,11.71-29.64,11.47-5.98-.24-18.64,8.6-18.64,8.6l-47.48,30.43-24.22,15.93-34.9,18.16,3.82,119.5s16.73.96,32.98,13.38,39.68,10.99,58.32,11.95c18.64.96,43.02,3.82,43.02,3.82,26.77,3.82,68.36,23.42,81.26,32.98,12.91,9.56,28.2,16.25,36.81,1.43,8.6-14.82-5.26-15.3-27.25-32.51-21.99-17.21-57.84-39.2-57.84-39.2,0,0,7.65-3.35,25.81,1.91,18.16,5.26,44.93,20.08,65.01,27.25,20.08,7.17,30.12,8.6,35.37-6.21,5.26-14.82-16.25-24.86-16.25-24.86,0,0-20.09-13.23-37.53-19.6-17.44-6.37-33.37-14.02-37.52-16.57-4.14-2.55-5.1-13.7-5.1-13.7,0,0,38.88,1.91,65.33,4.14,26.45,2.23,56.09,7.97,56.09,7.97l-.16,15.3s-.96,26.29,9.56,26.29,25.34-13.38,27.73-25.34c2.39-11.95,0-21.51,6.69-37.29,6.69-15.77-6.69-35.37-6.69-35.37ZM2402.39,3002.88s-2.55,0-25.81-5.42c-23.26-5.42-34.74-5.74-57.36-7.33-22.63-1.59-31.87-8.47-31.87-8.47,0,0,32.19-2.69,60.71-2.05,28.52.64,62.3,2.05,62.3,2.05.64,22.76-7.97,21.21-7.97,21.21Z"/>
      <g class="cls-5">
        <path class="cls-39" d="M2248.71,2926.71l-10.12,6.69s-45.33,0-62.78,4.06c0,0,1.43-5.02,49.95-8.37,0,0,9.8-9.56,15.77-9.56s7.17,7.17,7.17,7.17Z"/>
        <path class="cls-39" d="M2436.97,3058.97s.03,7.34-12.91,13.86c-12.94,6.52-15.46-13.23-15.46-13.23l-3.51,13.38s10.04,10.84,20.71,4.62c10.68-6.21,11.31-14.5,11.15-18.64Z"/>
        <path class="cls-39" d="M2404.62,3047.65l4.14-3.35s15.14,1.12,19.92-7.97,5.9-18.48,2.23-22.79c-3.66-4.3-13.31-9.08-20.52-9.88s-7.68-3.98-7.68-3.98l7.65-18.03s1.59-2.05,7.33-9.86c5.74-7.81,1.8-21.62-1.91-23.1-3.71-1.49-3.51-4.62-3.51-4.62,0,0,5.38-1.27,9.07,4.62s6.04,15.77,0,25.97c-6.04,10.2-7.47,8.92-7.47,8.92,0,0,1.59,8.92-2.39,15.93,0,0,17.85,3.51,23.9,12.59,6.05,9.08-2.07,32.51-10.2,34.58s-10.68,2.07-20.55.96Z"/>
        <polygon class="cls-39" points="2456.17 2983.12 2445.89 2987.9 2434.66 3013.23 2436.33 3017.38 2448.49 2992.35 2456.17 2983.12"/>
      </g>
    </g>
    <path class="cls-31" d="M2348.06,2979.61c-28.52-.64-60.71,2.05-60.71,2.05,0,0,9.24,6.87,31.87,8.47,22.63,1.59,34.1,1.91,57.36,7.33,23.26,5.42,25.81,5.42,25.81,5.42,0,0,8.6,1.55,7.97-21.21,0,0-33.78-1.41-62.3-2.05Z"/>
    <path class="cls-31" d="M2352.68,3036.34c-26.45-2.23-65.33-4.14-65.33-4.14,0,0,.96,11.15,5.1,13.7,4.14,2.55,20.08,10.2,37.52,16.57,17.44,6.37,37.53,19.6,37.53,19.6,24.86.96,41.11-22.47,41.11-22.47l.16-15.3s-29.64-5.74-56.09-7.97Z"/>
    <g>
      <path class="cls-31" d="M2421.03,2883.69c1.91-18.64-5.9-19.76-5.9-19.76-58.48-22.15-111.22-14.66-111.22-14.66,0,0-45.17.96-54.26,2.39-9.08,1.43-8.37,36.33-8.37,36.33l-2.71,45.41s58.32-1.59,101.34,1.59c43.02,3.19,73.93,13.38,73.93,12.43s.96-15.93.96-15.93v-4.78l1.59-43.66,4.62.64Z"/>
      <g class="cls-7">
        <path class="cls-38" d="M2242.73,2843.86l5.44,8.41s35.99,23.46,85.06,25.05c49.08,1.59,73.62-2.87,73.62-2.87,0,0,1.59,5.1-33.14,9.88-34.74,4.78-75.53,0-101.02-9.88-25.49-9.88-34.1-22.18-34.1-22.18l4.14-8.41Z"/>
      </g>
    </g>
    <path class="cls-29" d="M1951.14,2465.42l-67.4-6.69s65.49,117.11,118.07,210.81c52.58,93.69,119.51,284.9,119.51,284.9l24.22-15.93s-30.59-138.31-40.79-184.2c-10.2-45.89-40.15-159.98-61.82-231.36-21.67-71.38-36.97-117.27-74.57-183.56-37.6-66.29-46.53-105.16-46.53-105.16,0,0-25.29,18.68-56.03,41.25l27.99,169.87,57.36,20.08Z"/>
    <g>
      <path class="cls-15" d="M2042.92,2522.95c21.67,71.38,51.63,185.47,61.82,231.36,10.2,45.89,40.79,184.2,40.79,184.2l47.48-30.43s0-108.03-1.43-156.31c-1.43-48.28-19.28-199.81-23.74-233.59-4.46-33.78-8.6-54.81-8.6-54.81,0,0,11.15-10.84,18.48-26.45,3.34-7.12,2.57-19.08.75-29.99-5.32-.55-10.15-1.58-14.32-2.83.82,8.01,1.62,17.51,1.62,24.06,0,13.38-24.38,41.11-24.38,41.11l1.43-17.69c-18.64-12.91-72.82-64.05-72.82-64.05-39.83-8.92-58.32-35.37-80.94-61.82-22.63-26.45-51.31-86.04-55.77-104.21l-11.47,12.75s8.92,38.88,46.53,105.16c37.6,66.29,52.9,112.18,74.57,183.56Z"/>
      <g class="cls-36">
        <path class="cls-38" d="M2019.02,2475.78s37.6-13.38,60.23-25.81c22.63-12.43,40.15-23.58,40.15-23.58l3.82,5.74s-57.36,38.88-100.7,49.4l-3.51-5.74Z"/>
        <path class="cls-38" d="M2173.26,2466.22l-14.02-2.87s-23.99,28.04-27.13,35.05c-3.14,7.01,12.47,13.07,8.65,23.26-3.82,10.2-17.21,30.27-32.19,58.32-14.98,28.04-7.33,92.1-7.33,92.1,0,0-6.69-10.84-6.05-45.89.64-35.05,11.15-55.13,18.16-66.6l7.01-11.47s5.74-33.14,5.74-39.2-3.51-11.15.64-17.85c4.14-6.69,14.66-21.83,14.66-21.83l12.43-27.57s7.33-25.81.32-47.16l30.59,7.01s12.11,42.38-11.47,64.69Z"/>
      </g>
    </g>
    <path class="cls-29" d="M2248.18,2852.27c-.1-7.19-.18-16.21-.18-25.94,0-22.94,7.17-163.96,2.39-243.79-4.78-79.83-12.08-152.01-12.08-152.01l-26.64,10.99,7.65-13.15-16.8-22.69c-8.83,1.83-16.9,1.97-24.04,1.23,1.82,10.91,2.6,22.87-.75,29.99-7.33,15.62-18.48,26.45-18.48,26.45,0,0,4.14,21.03,8.6,54.81,4.46,33.78,22.31,185.31,23.74,233.59,1.43,48.28,1.43,156.31,1.43,156.31,0,0,12.67-8.84,18.64-8.6,5.98.24,17.69-12.91,29.64-11.47,0,0-.63-30.91,6.88-35.73Z"/>
    <g>
      <path class="cls-45" d="M2211.66,2441.52l26.64-10.99s7.3,72.18,12.08,152.01c4.78,79.83-2.39,220.85-2.39,243.79,0,9.73.09,18.75.18,25.94.47-.3.96-.52,1.49-.6,9.08-1.43,54.26-2.39,54.26-2.39,0,0-2.87-15.3-2.87-33.46s12.43-22.94,8.6-63.1c-3.82-40.15-1.91-69.79,4.78-170.18,6.69-100.38,1.27-159.66-9.88-181.97-11.15-22.31-50.03-40.79-50.03-40.79,0,0-4.46,5.42-11.47,10.52,0,0-8.29,28.68-40.47,35.37-.02,0-.05,0-.07.01l16.8,22.69-7.65,13.15Z"/>
      <g class="cls-28">
        <path class="cls-41" d="M2268.55,2859.47s.64-59.27,11.47-140.86c10.84-81.58,19.76-186.11,25.49-218.61,5.74-32.51,14.66-59.91,14.66-59.91l7.01,26.13s-7.65,26.13-21.67,110.9c-14.02,84.77-17.85,133.21-21.35,159.98-3.51,26.77-8.6,122.37-8.6,122.37h-7.01Z"/>
      </g>
    </g>
    <path class="cls-11" d="M2141.39,2469.25s24.38-27.73,24.38-41.11c0-6.54-.8-16.04-1.62-24.06-10.59-3.18-17.15-7.63-17.98-8.29-1.59-1.27-36.33.64-76.16-8.29,0,0,54.18,51.15,72.82,64.05l-1.43,17.69Z"/>
    <path class="cls-11" d="M1948.59,2148.81c18.48-11.47,49.71,6.37,63.1,28.04,13.38,21.67,21.03,54.81,21.03,54.81l24.22,1.91s7.01-32.51,13.38-68.2c6.37-35.69,22.94-63.74,61.19-73.93,38.24-10.2,123.01-1.91,180.37-49.71,40.15-44.62,33.14-89.23-3.19-96.24-36.33-7.01-42.7-33.14-99.43-72.02-56.72-38.88-96.24-48.44-130.66-36.97-34.42,11.47-53.54,42.07-53.54,42.07-82.22-1.91-117.91,81.58-116,109.63,1.91,28.04-1.27,88.59,8.92,147.87,10.2,59.27,26.13,66.29,26.13,66.29,0,0-14.02-42.07,4.46-53.54Z"/>
    <g>
      <path class="cls-20" d="M2070.01,2387.51c39.84,8.92,74.57,7.01,76.16,8.29,1.59,1.27,24.22,16.57,56.41,9.88s40.47-35.37,40.47-35.37c7.01-5.1,11.47-10.52,11.47-10.52,5.74-3.19,10.84-20.71,10.84-20.71,0,0,6.69-7.97,10.83-17.21,4.14-9.24,5.74-29.48,5.74-29.48,10.99-1.43,10.99-21.51,10.99-21.51,13.38-24.86,17.21-85.57,17.21-85.57,0,0,18.16-26.77,20.55-54.49,2.39-27.73-14.34-26.29-15.3-53.06-.96-26.77-3.51-36.01-3.51-36.01-57.36,47.8-142.13,39.52-180.37,49.71-38.24,10.2-54.81,38.24-61.19,73.93-6.37,35.69-13.38,68.2-13.38,68.2l-24.22-1.91s-7.65-33.14-21.03-54.81c-13.38-21.67-44.61-39.52-63.1-28.04-18.48,11.47-4.46,53.54-4.46,53.54l-10.84,19.12c4.46,18.16,33.14,77.76,55.77,104.21,22.63,26.45,41.11,52.9,80.94,61.82Z"/>
      <g class="cls-2">
        <path class="cls-39" d="M2139.8,2410.13l6.37-14.34s-74.57-20.71-136.4-88.91c-61.82-68.2-65.65-104.53-65.65-104.53l-10.84,2.55-10.83,19.65s15.3,49.19,72.02,126.31,145.32,59.27,145.32,59.27Z"/>
        <path class="cls-39" d="M1999.26,2246.01s-24.86,3.19-37.29-28.68c-12.43-31.87-15.62-54.81-1.91-57.68,13.7-2.87,33.46,15.3,26.13,31.23-7.33,15.93-16.89,18.8-4.78,25.49,12.11,6.69,33.46,23.26,17.85,29.64Z"/>
      </g>
    </g>
    <path class="cls-15" d="M2258.35,2610.26s2.85,18.8,1.59,30.91l24.23-15.46v-23.42l-16.57,12.75-9.24-4.78Z"/>
  </g>
  <rect class="cls-11" x="707.84" y="3912.16" width="3531.89" height="37.34"/>
  <g>
    <path class="cls-40" d="M1846.13,1451.48h-358.07c-34.72,0-62.87,28.15-62.87,62.87v172.18c0,34.72,28.15,62.87,62.87,62.87h114.9c30.05,20.29,73.76,49.93,93.87,64.25,27.45,19.53,26.53-23.16,27.55-64.25h121.75c34.72,0,62.87-28.15,62.87-62.87v-172.18c0-34.72-28.15-62.87-62.87-62.87Z"/>
    <circle class="cls-15" cx="1540.55" cy="1595.39" r="31.91" transform="translate(-676.9 1556.61) rotate(-45)"/>
    <circle class="cls-15" cx="1666.93" cy="1595.39" r="31.91" transform="translate(-639.88 1645.98) rotate(-45)"/>
    <circle class="cls-15" cx="1787.56" cy="1595.39" r="31.91" transform="translate(-474.46 805.51) rotate(-22.5)"/>
  </g>
  <g>
    <path class="cls-40" d="M2689.61,1214.88h358.07c34.72,0,62.87,28.15,62.87,62.87v172.18c0,34.72-28.15,62.87-62.87,62.87h-114.9c-30.05,20.29-73.76,49.93-93.87,64.25-27.45,19.53-26.53-23.16-27.55-64.25h-121.75c-34.72,0-62.87-28.15-62.87-62.87v-172.18c0-34.72,28.15-62.87,62.87-62.87Z"/>
    <circle class="cls-15" cx="2995.2" cy="1358.8" r="31.91" transform="translate(593.62 3606.01) rotate(-67.5)"/>
    <circle class="cls-15" cx="2868.82" cy="1358.8" r="31.91" transform="translate(515.6 3489.25) rotate(-67.5)"/>
    <circle class="cls-15" cx="2748.18" cy="1358.8" r="31.91" transform="translate(-155.89 2341.24) rotate(-45)"/>
  </g>
  <g>
    <g>
      <path class="cls-48" d="M1113.52,2008.86c-146.17,0-265.08,118.92-265.08,265.08s118.92,265.08,265.08,265.08,265.08-118.92,265.08-265.08-118.92-265.08-265.08-265.08ZM1113.52,2505.24c-127.74,0-231.3-103.56-231.3-231.3s103.56-231.3,231.3-231.3,231.3,103.56,231.3,231.3-103.56,231.3-231.3,231.3Z"/>
      <path class="cls-48" d="M1113.52,2062.92c-116.36,0-211.03,94.67-211.03,211.03s94.67,211.03,211.03,211.03,211.03-94.67,211.03-211.03-94.67-211.03-211.03-211.03Z"/>
    </g>
    <path class="cls-15" d="M1191.61,2282.71c5.19,5.06,9.24,10.96,12.16,17.7,2.92,6.75,4.38,14.78,4.38,24.12,0,20.36-7.78,37.45-23.35,51.26-15.56,13.81-35.15,21.5-58.75,23.05v54.86h-15.95v-54.47c-25.68-.52-46.5-6.64-62.45-18.38-15.95-11.74-23.93-26.29-23.93-43.68,0-7.65,1.68-13.52,5.06-17.61,3.37-4.09,8.1-6.13,14.2-6.13,6.87,0,12.26,1.72,16.15,5.16,3.89,3.44,5.84,7.49,5.84,12.16,0,3.5-1.23,8.79-3.7,15.86-2.47,7.07-4.02,11.9-4.67,14.49,3.76,6.75,10.28,12.19,19.55,16.34,9.27,4.15,20.59,6.29,33.95,6.42v-98.44c-5.71-2.07-10.67-3.89-14.88-5.45-4.22-1.56-9.76-3.76-16.63-6.61-14.92-6.09-26.59-14.1-35.02-24.03-8.43-9.92-12.65-22.79-12.65-38.62,0-18.68,7.78-34.43,23.35-47.27,15.56-12.84,34.17-19.45,55.83-19.84v-44.55h15.95v44.55c12.84.26,24.19,2.14,34.05,5.64,9.86,3.5,17.9,7.85,24.12,13.03,6.23,5.19,10.93,10.89,14.1,17.12,3.18,6.23,4.77,12.26,4.77,18.09s-1.36,10.8-4.09,14.88c-2.72,4.09-7.2,6.13-13.42,6.13s-11.64-1.62-15.86-4.86c-4.22-3.24-6.32-6.87-6.32-10.89,0-4.8.52-9.56,1.56-14.3,1.04-4.73,1.95-8.92,2.72-12.55-.39-.78-1.69-2.17-3.89-4.18-2.21-2.01-4.8-3.86-7.78-5.54-3.24-1.82-7.52-3.44-12.84-4.86-5.32-1.43-11.03-2.14-17.12-2.14v90.27c5.06,1.82,9.3,3.4,12.74,4.77,3.43,1.36,7.68,3.02,12.74,4.96,8.04,3.11,15.43,6.52,22.18,10.21,6.74,3.7,12.71,8.14,17.9,13.33ZM1110.1,2244.77v-85.6c-12.58,0-23.15,3.57-31.71,10.7-8.56,7.13-12.84,15.89-12.84,26.26,0,11.28,2.66,20.3,7.98,27.04,5.32,6.75,13.36,12.32,24.12,16.73,1.56.65,3.5,1.43,5.84,2.33,2.33.91,4.54,1.75,6.61,2.53ZM1171.58,2340.29c0-10.63-2.76-19.87-8.27-27.72-5.51-7.85-14.88-14.36-28.11-19.55-1.69-.65-3.28-1.23-4.77-1.75-1.49-.52-2.95-1.04-4.38-1.56v93.97c15.17-.91,26.56-5.22,34.14-12.94,7.59-7.72,11.38-17.86,11.38-30.45Z"/>
  </g>
  <g>
    <g>
      <path class="cls-48" d="M4103.43,2183.07c-143.64,0-260.5,116.86-260.5,260.5s116.86,260.5,260.5,260.5,260.5-116.86,260.5-260.5-116.86-260.5-260.5-260.5ZM4103.43,2670.86c-125.53,0-227.3-101.76-227.3-227.3s101.76-227.3,227.3-227.3,227.3,101.76,227.3,227.3-101.76,227.3-227.3,227.3Z"/>
      <path class="cls-48" d="M4103.43,2236.19c-114.35,0-207.38,93.03-207.38,207.38s93.03,207.38,207.38,207.38,207.38-93.03,207.38-207.38-93.03-207.38-207.38-207.38Z"/>
    </g>
    <g>
      <path class="cls-15" d="M4182.98,2452.65c7.75,4.68,14.18,10.82,19.31,18.4,5.12,7.58,7.69,16.78,7.69,27.59s-2.69,20.63-8.06,28.76c-5.37,8.14-12.37,14.83-20.99,20.07-8.37,5.13-17.84,9.03-28.4,11.71-10.56,2.68-21.46,4.01-32.71,4.01h-125.96v-11.87c3-.22,7.37-.7,13.12-1.42,5.75-.72,9.87-1.59,12.37-2.59,3.87-1.56,6.62-3.65,8.25-6.27,1.62-2.62,2.44-5.99,2.44-10.12v-170.58c0-3.79-.72-7.13-2.16-10.03-1.44-2.9-4.28-5.24-8.53-7.02-3.75-1.67-7.94-2.95-12.56-3.85-4.62-.89-8.5-1.45-11.62-1.67v-11.87h122.77c9.49,0,18.59.84,27.27,2.51,8.68,1.67,16.96,4.63,24.83,8.86,7.37,3.9,13.43,9.2,18.18,15.89,4.75,6.69,7.12,14.83,7.12,24.42,0,8.36-1.69,15.8-5.06,22.33-3.37,6.52-8.12,12.12-14.25,16.81-5.75,4.46-12.34,8.22-19.77,11.29-7.44,3.07-15.46,5.44-24.09,7.11v1.5c7.62.78,16.15,2.48,25.59,5.1,9.43,2.62,17.84,6.27,25.21,10.95ZM4137.65,2416.83c4.61-4.8,7.82-10.05,9.63-15.75,1.81-5.7,2.71-12.45,2.71-20.27,0-13.07-3.99-23.32-11.97-30.74-7.98-7.43-20.57-11.14-37.77-11.14-3.99,0-9.01.08-15.05.25-6.05.17-11.13.31-15.24.42v91.31h23.75c10.22,0,18.98-1.17,26.27-3.52,7.29-2.35,13.18-5.86,17.67-10.56ZM4163.67,2492.62c0-14.05-5.28-25.59-15.84-34.62-10.56-9.03-25.65-13.55-45.27-13.55-8,0-14.75.08-20.24.25-5.5.17-9.62.31-12.37.42v83.62c0,7.02,3.19,12.32,9.56,15.89,6.37,3.57,15.24,5.35,26.62,5.35,18.62,0,32.86-4.85,42.74-14.55,9.87-9.7,14.81-23.97,14.81-42.81Z"/>
      <g>
        <rect class="cls-15" x="4073.17" y="2282.85" width="24.9" height="49.33"/>
        <rect class="cls-15" x="4113.74" y="2282.85" width="24.9" height="49.33"/>
        <rect class="cls-15" x="4073.17" y="2555.78" width="24.9" height="49.33"/>
        <rect class="cls-15" x="4113.74" y="2555.78" width="24.9" height="49.33"/>
      </g>
    </g>
  </g>
  <text class="cls-12" transform="translate(4057.26 1869.97)"><tspan class="cls-35" x="0" y="0">c</tspan><tspan x="5.3" y="0">o i</tspan><tspan class="cls-16" x="17.24" y="0">n</tspan><tspan class="cls-46" x="23.75" y="0">v</tspan><tspan class="cls-1" x="29.4" y="0">estme</tspan><tspan class="cls-19" x="60.16" y="0">n</tspan><tspan x="66.77" y="0">t </tspan><tspan class="cls-23" x="73.28" y="0">v</tspan><tspan x="78.94" y="0">e</tspan><tspan class="cls-35" x="84.95" y="0">c</tspan><tspan class="cls-21" x="90.25" y="0">c</tspan><tspan class="cls-35" x="95.78" y="0">t</tspan><tspan x="99.68" y="0">or</tspan></text>
</svg>